<svg id="Layer_1" data-name="Layer 1" xmlns="http://www.w3.org/2000/svg" xmlns:xlink="http://www.w3.org/1999/xlink" viewBox="0 0 498 359"><defs><style>.cls-1{fill:#fff;}.cls-2{fill:#2d2e40;fill-rule:evenodd;opacity:0.08;}.cls-2,.cls-3,.cls-4{isolation:isolate;}.cls-3,.cls-4{fill:none;stroke:#2d2e40;}.cls-3{opacity:0.5;}.cls-4{opacity:0.25;}.cls-5{fill:#535353;}.cls-6{fill:#1d1d25;}.cls-7{fill:url(#linear-gradient);}.cls-8{mask:url(#mask);}.cls-9{fill:#f9f6f6;}.cls-10{mask:url(#mask-2);}.cls-11{fill:#e7e7e7;}.cls-12{opacity:0.098;}.cls-13{fill:#4a5166;}.cls-14{mask:url(#mask-3);}.cls-15{fill:#2f2f47;}.cls-16{fill:#54526e;}.cls-17{fill:#3a3a54;}</style><linearGradient id="linear-gradient" x1="-707.0042" y1="717.4427" x2="-706.0042" y2="716.9986" gradientTransform="matrix(237, 0, 0, -157.94, 167692, 113456.8018)" gradientUnits="userSpaceOnUse"><stop offset="0" stop-color="#ff8f71"/><stop offset="1" stop-color="#ff3e55"/></linearGradient><mask id="mask" x="131.848" y="100" width="237.152" height="158.061" maskUnits="userSpaceOnUse"><g id="d"><rect id="b" class="cls-1" x="132" y="100" width="237" height="157.94" rx="3"/></g></mask><mask id="mask-2" x="132" y="100" width="237" height="157.94" maskUnits="userSpaceOnUse"><g id="d-2" data-name="d"><rect id="b-2" data-name="b" class="cls-1" x="132" y="100" width="237" height="157.94" rx="3"/></g></mask><mask id="mask-3" x="85" y="244.374" width="190.76" height="23.187" maskUnits="userSpaceOnUse"/></defs><title>illustration-laptop-mobile</title><path class="cls-2" d="M249.5,293h0A111.5,111.5,0,0,0,361,181.5h0A111.5,111.5,0,0,0,249.5,70h0A111.5,111.5,0,0,0,138,181.5h0A111.5,111.5,0,0,0,249.5,293Z"/><path class="cls-3" d="M249,305.5h0A125.5,125.5,0,0,0,374.5,180h0A125.5,125.5,0,0,0,249,54.5h0A125.5,125.5,0,0,0,123.5,180h0A125.5,125.5,0,0,0,249,305.5Z"/><path class="cls-4" d="M249,342.5h0A162.5,162.5,0,0,0,411.5,180h0A162.5,162.5,0,0,0,249,17.5h0A162.5,162.5,0,0,0,86.5,180h0A162.5,162.5,0,0,0,249,342.5Z"/><rect class="cls-5" x="124" y="92" width="252" height="173" rx="12"/><rect class="cls-6" x="125" y="94" width="250" height="170" rx="10"/><rect class="cls-7" x="132" y="100" width="237" height="157.94" rx="3"/><g class="cls-8"><rect class="cls-9" x="131.848" y="128.352" width="237" height="129.709" rx="3"/></g><g class="cls-10"><rect class="cls-1" x="165.478" y="117.615" width="49.951" height="120.635" rx="3"/><rect class="cls-1" x="223.931" y="117.615" width="111.592" height="120.635" rx="3"/><rect class="cls-11" x="228.713" y="124.02" width="102.027" height="28.291" rx="3"/><rect class="cls-11" x="228.713" y="158.183" width="30.289" height="28.291" rx="3"/><rect class="cls-11" x="266.442" y="158.183" width="64.298" height="28.291" rx="3"/></g><g class="cls-12"><path class="cls-13" d="M249.5,85h5.12a.5.5,0,0,1,.5.5h0a.5.5,0,0,1-.5.5H249.5a.5.5,0,0,1-.5-.5h0A.5.5,0,0,1,249.5,85Z"/><path class="cls-13" d="M257.06,85h.44a.5.5,0,0,1,.5.5h0a.5.5,0,0,1-.5.5h-.44a.5.5,0,0,1-.5-.5h0A.5.5,0,0,1,257.06,85Z"/></g><g class="cls-14"><rect class="cls-15" x="222.193" y="244.374" width="53.567" height="23.187" rx="10"/></g><rect class="cls-16" x="85.7643" y="261.9712" width="328.4714" height="11.1797" rx="1.3696"/><path class="cls-17" d="M414.2357,270.8987v.8826a1.37,1.37,0,0,1-1.37,1.37H87.1339a1.37,1.37,0,0,1-1.37-1.37v-.8826Z"/><path class="cls-17" d="M217.4523,261.9712h65.0954a0,0,0,0,1,0,0v0a4.21,4.21,0,0,1-4.21,4.21H221.6625a4.21,4.21,0,0,1-4.21-4.21v0a0,0,0,0,1,0,0Z"/></svg>