<svg id="Layer_1" data-name="Layer 1" xmlns="http://www.w3.org/2000/svg" xmlns:xlink="http://www.w3.org/1999/xlink" viewBox="0 0 974 786"><defs><style>.cls-1{fill:#fff;}.cls-2,.cls-3{fill:none;stroke:#2d2e40;}.cls-2{opacity:0.5;}.cls-2,.cls-3,.cls-4{isolation:isolate;}.cls-3{opacity:0.25;}.cls-4{fill:#2d2e40;fill-rule:evenodd;opacity:0.08;}.cls-5{fill:#535353;}.cls-6{fill:#1d1d25;}.cls-7{fill:url(#linear-gradient);}.cls-8{mask:url(#mask);}.cls-9{fill:#f9f6f6;}.cls-10{mask:url(#mask-2);}.cls-11{fill:#e7e7e7;}.cls-12{opacity:0.098;}.cls-13{fill:#4a5166;}.cls-14{mask:url(#mask-3);}.cls-15{fill:#2f2f47;}.cls-16{fill:#54526e;}.cls-17{fill:#3a3a54;}</style><linearGradient id="linear-gradient" x1="-471.0672" y1="933.2856" x2="-470.0672" y2="932.845" gradientTransform="matrix(506, 0, 0, -335.872, 238649, 313782.4567)" gradientUnits="userSpaceOnUse"><stop offset="0" stop-color="#ff8f71"/><stop offset="1" stop-color="#ff3e55"/></linearGradient><mask id="mask" x="288.675" y="224" width="506.325" height="336.131" maskUnits="userSpaceOnUse"><g id="d"><rect id="b" class="cls-1" x="289" y="224" width="506" height="335.872" rx="3"/></g></mask><mask id="mask-2" x="289" y="224" width="506" height="335.872" maskUnits="userSpaceOnUse"><g id="d-2" data-name="d"><rect id="b-2" data-name="b" class="cls-1" x="289" y="224" width="506" height="335.872" rx="3"/></g></mask><mask id="mask-3" x="190" y="530.092" width="406.527" height="52.171" maskUnits="userSpaceOnUse"/></defs><title>illustration-laptop-desktop</title><path class="cls-2" d="M392,726.5h0c183.6347,0,332.5-148.8653,332.5-332.5v-2C724.5,208.3653,575.6347,59.5,392,59.5h0C208.3653,59.5,59.5,208.3653,59.5,392v2C59.5,577.6347,208.3653,726.5,392,726.5Z"/><path class="cls-3" d="M392,785.5h0c216.22,0,391.5-175.28,391.5-391.5v-2C783.5,175.7805,608.22.5,392,.5h0C175.7805.5.5,175.7805.5,392v2C.5,610.22,175.7805,785.5,392,785.5Z"/><path class="cls-4" d="M392,669h0c151.8783,0,275-123.1217,275-275v-2c0-151.8783-123.1217-275-275-275h0c-151.8783,0-275,123.1217-275,275v2C117,545.8783,240.1217,669,392,669Z"/><rect class="cls-5" x="272" y="208" width="538" height="368" rx="12"/><rect class="cls-6" x="275" y="211" width="532" height="362" rx="10"/><rect class="cls-7" x="289" y="224" width="506" height="335.872" rx="3"/><g class="cls-8"><rect class="cls-9" x="288.675" y="284.293" width="506" height="275.838" rx="3"/></g><g class="cls-10"><rect class="cls-1" x="360.475" y="261.46" width="106.646" height="256.541" rx="3"/><rect class="cls-1" x="485.273" y="261.46" width="238.251" height="256.541" rx="3"/><rect class="cls-11" x="495.484" y="275.082" width="217.83" height="60.162" rx="3"/><rect class="cls-11" x="495.484" y="347.73" width="64.668" height="60.162" rx="3"/><rect class="cls-11" x="576.036" y="347.73" width="137.278" height="60.162" rx="3"/></g><g class="cls-12"><path class="cls-13" d="M540.5,192h10.6a1.5,1.5,0,0,1,1.5,1.5h0a1.5,1.5,0,0,1-1.5,1.5H540.5a1.5,1.5,0,0,1-1.5-1.5h0A1.5,1.5,0,0,1,540.5,192Z"/><path class="cls-13" d="M557.3,192h.2a1.5,1.5,0,0,1,1.5,1.5h0a1.5,1.5,0,0,1-1.5,1.5h-.2a1.5,1.5,0,0,1-1.5-1.5h0A1.5,1.5,0,0,1,557.3,192Z"/></g><g class="cls-14"><rect class="cls-15" x="482.371" y="530.092" width="114.156" height="52.171" rx="10"/></g><rect class="cls-16" x="196.5532" y="573" width="688.8936" height="23.4468" rx="2.8723"/><path class="cls-17" d="M885.4468,591.7234v1.8511a2.8723,2.8723,0,0,1-2.8723,2.8723H199.4255a2.8723,2.8723,0,0,1-2.8723-2.8723v-1.8511Z"/><path class="cls-17" d="M472.7387,573H609.2613a0,0,0,0,1,0,0v1.1034a7.7264,7.7264,0,0,1-7.7264,7.7264h-121.07a7.7264,7.7264,0,0,1-7.7264-7.7264V573A0,0,0,0,1,472.7387,573Z"/></svg>