<svg id="Layer_1" data-name="Layer 1" xmlns="http://www.w3.org/2000/svg" xmlns:xlink="http://www.w3.org/1999/xlink" viewBox="0 0 406 331"><defs><style>.cls-1{fill:#fff;}.cls-2,.cls-8{fill:#2d2e40;}.cls-2{fill-rule:evenodd;opacity:0.08;}.cls-2,.cls-3,.cls-4{isolation:isolate;}.cls-3,.cls-4,.cls-9{fill:none;}.cls-3,.cls-4{stroke:#2d2e40;}.cls-3{opacity:0.5;}.cls-4{opacity:0.25;}.cls-5{fill:url(#linear-gradient);}.cls-6{fill:#2e2e3f;}.cls-7{mask:url(#mask);}.cls-9{stroke-linecap:round;stroke-width:8px;stroke:url(#linear-gradient-2);}</style><linearGradient id="linear-gradient" x1="-753.681" y1="703.998" x2="-752.681" y2="703.555" gradientTransform="matrix(326, 0, 0, -217, 245740, 152882)" gradientUnits="userSpaceOnUse"><stop offset="0" stop-color="#ff8f71"/><stop offset="1" stop-color="#ff3e55"/></linearGradient><mask id="mask" x="40" y="54" width="326" height="217" maskUnits="userSpaceOnUse"><g id="d"><rect id="a" class="cls-1" x="40" y="54" width="326" height="217" rx="5"/></g></mask><linearGradient id="linear-gradient-2" x1="-752.0868" y1="700.8263" x2="-751.0868" y2="700.6588" gradientTransform="matrix(193, 0, 0, -78.9996, 145298, 55518.7472)" xlink:href="#linear-gradient"/></defs><title>illustration-editor-mobile</title><path class="cls-2" d="M203.5,276h0A111.5,111.5,0,0,0,315,164.5h0A111.5,111.5,0,0,0,203.5,53h0A111.5,111.5,0,0,0,92,164.5h0A111.5,111.5,0,0,0,203.5,276Z"/><path class="cls-3" d="M203,288.5h0A125.5,125.5,0,0,0,328.5,163h0A125.5,125.5,0,0,0,203,37.5h0A125.5,125.5,0,0,0,77.5,163h0A125.5,125.5,0,0,0,203,288.5Z"/><path class="cls-4" d="M203,325.5h0A162.5,162.5,0,0,0,365.5,163h0A162.5,162.5,0,0,0,203,.5h0A162.5,162.5,0,0,0,40.5,163h0A162.5,162.5,0,0,0,203,325.5Z"/><rect class="cls-5" x="40" y="54" width="326" height="217" rx="5"/><path class="cls-6" d="M40,123.2766H366v144.32c0,1.88-2.2386,3.4038-5,3.4038H45c-2.7614,0-5-1.5239-5-3.4038Z"/><g class="cls-7"><rect class="cls-1" x="85.967" y="78.246" width="68.95" height="69.707" rx="3"/></g><g class="cls-7"><ellipse class="cls-8" cx="120.442" cy="113.402" rx="19.959" ry="20.003"/></g><g class="cls-7"><rect class="cls-1" x="166.408" y="78.246" width="153.625" height="165.478" rx="3"/></g><path class="cls-9" d="M146,198q35.8065-56.091,52.964-60.62c17.158-4.53,12.04,42.374,36.744,36.938s27.717-52.994,46.403-55.234,28.57,41.257,36.733,45.264q8.1615,4.008,20.156-17.332"/></svg>