<svg id="Layer_1" data-name="Layer 1" xmlns="http://www.w3.org/2000/svg" xmlns:xlink="http://www.w3.org/1999/xlink" viewBox="0 0 925 882"><defs><style>.cls-1{fill:#fff;}.cls-2,.cls-8{fill:#2d2e40;}.cls-2{fill-rule:evenodd;opacity:0.08;}.cls-2,.cls-3,.cls-4{isolation:isolate;}.cls-3,.cls-4,.cls-9{fill:none;}.cls-3,.cls-4{stroke:#2d2e40;}.cls-3{opacity:0.5;}.cls-4{opacity:0.25;}.cls-5{fill:url(#linear-gradient);}.cls-6{fill:#2e2e3f;}.cls-7{mask:url(#mask);}.cls-9{stroke-linecap:round;stroke-width:8px;stroke:url(#linear-gradient-2);}</style><linearGradient id="linear-gradient" x1="-496.2259" y1="981.4917" x2="-495.2259" y2="981.0493" gradientTransform="matrix(642, 0, 0, -427, 318617, 419458)" gradientUnits="userSpaceOnUse"><stop offset="0" stop-color="#ff8f71"/><stop offset="1" stop-color="#ff3e55"/></linearGradient><mask id="mask" x="40" y="242" width="642" height="427" maskUnits="userSpaceOnUse"><g id="d"><rect id="a" class="cls-1" x="40" y="242" width="642" height="427" rx="15"/></g></mask><linearGradient id="linear-gradient-2" x1="-495.6993" y1="980.9275" x2="-494.6993" y2="980.762" gradientTransform="matrix(381, 0, 0, -154.9991, 189109, 152482.1468)" xlink:href="#linear-gradient"/></defs><title>illustration-editor-desktop</title><path class="cls-2" d="M485,746h0c165.6854,0,300-134.3146,300-300v-2c0-165.6854-134.3146-300-300-300h0c-165.6854,0-300,134.3146-300,300v2C185,611.6854,319.3146,746,485,746Z"/><path class="cls-3" d="M485,781.5h0c187.5007,0,339.5-151.9993,339.5-339.5v-2c0-187.5007-151.9993-339.5-339.5-339.5h0c-187.5007,0-339.5,151.9993-339.5,339.5v2C145.5,629.5007,297.4993,781.5,485,781.5Z"/><path class="cls-4" d="M485,881.5h0c242.7291,0,439.5-196.7708,439.5-439.5v-2C924.5,197.2709,727.7291.5,485,.5h0C242.2708.5,45.5,197.2709,45.5,440v2C45.5,684.7292,242.2708,881.5,485,881.5Z"/><rect x="40" y="242" width="642" height="427" rx="15"/><rect class="cls-5" x="40" y="242" width="642" height="427" rx="15"/><path class="cls-6" d="M40,367H682V658.3911C682,664.25,675.2843,669,667,669H55c-8.2843,0-15-4.75-15-10.6089Z"/><g class="cls-7"><rect class="cls-1" x="130.523" y="289.709" width="135.785" height="137.165" rx="3"/></g><g class="cls-7"><ellipse class="cls-8" cx="198.416" cy="358.888" rx="39.306" ry="39.36"/></g><g class="cls-7"><rect class="cls-1" x="288.939" y="289.709" width="302.538" height="325.617" rx="3"/></g><path class="cls-9" d="M249,526q70.6875-110.0505,104.557-118.938c33.87-8.886,23.765,83.14,72.535,72.473s54.716-103.974,91.603-108.37,56.402,80.946,72.515,88.81q16.113,7.8615,39.79-34.007"/></svg>