<svg id="Layer_1" data-name="Layer 1" xmlns="http://www.w3.org/2000/svg" viewBox="0 0 101 40"><defs><style>.cls-1{fill:#fff;}</style></defs><title>logo</title><path class="cls-1" d="M20.7328,17.4115a6.5476,6.5476,0,0,1,1.3811,4.1A6.5281,6.5281,0,0,1,19.77,26.8427a10.0956,10.0956,0,0,1-6.5767,1.9257H0V2.12H12.778a10.1793,10.1793,0,0,1,6.4075,1.8149,6.1045,6.1045,0,0,1,2.3224,5.1032,5.9309,5.9309,0,0,1-4.4972,6.0476A6.2793,6.2793,0,0,1,20.7328,17.4115ZM7.41,12.7051h3.7405q2.7962,0,2.7992-2.3071,0-2.3808-2.7992-2.3809H7.41Zm7.1057,7.7486a2.322,2.322,0,0,0-.7382-1.8518A3.0948,3.0948,0,0,0,11.68,17.959H7.41v4.8387h4.31Q14.5161,22.7977,14.516,20.4537Z"/><path class="cls-1" d="M32.7726.7976V28.7684h-7.41V.7976Z"/><path class="cls-1" d="M41.1826,27.71a9.7167,9.7167,0,0,1-3.95-3.78,11.2571,11.2571,0,0,1-1.4366-5.783,11.0683,11.0683,0,0,1,1.455-5.7431,9.9,9.9,0,0,1,3.9682-3.78,12.8965,12.8965,0,0,1,11.3784,0,9.8607,9.8607,0,0,1,3.9681,3.7805,11.039,11.039,0,0,1,1.4581,5.7431,11.141,11.141,0,0,1-1.4581,5.7645,9.7741,9.7741,0,0,1-3.9866,3.799,12.9361,12.9361,0,0,1-11.3968,0ZM49.46,21.4565a4.7871,4.7871,0,0,0,1.04-3.31,4.7075,4.7075,0,0,0-1.04-3.2884,3.3325,3.3325,0,0,0-2.55-1.132,3.2716,3.2716,0,0,0-2.5316,1.132,4.748,4.748,0,0,0-1.0213,3.2884,4.9478,4.9478,0,0,0,.9813,3.3283,3.2069,3.2069,0,0,0,2.5347,1.132A3.338,3.338,0,0,0,49.46,21.4565Z"/><path class="cls-1" d="M72.6324,8.1679a6.2989,6.2989,0,0,1,2.4762,2.3439V7.5649h7.41V28.5438A12.4552,12.4552,0,0,1,81.3808,33.93a8.7976,8.7976,0,0,1-3.5314,3.8359A11.6694,11.6694,0,0,1,71.78,39.2024a12.4125,12.4125,0,0,1-7.8624-2.307A8.7671,8.7671,0,0,1,60.5557,30.62h7.2934a2.4136,2.4136,0,0,0,1.1351,1.5872,4.35,4.35,0,0,0,2.3439.5691q3.7789,0,3.78-4.2327V25.8215a6.2991,6.2991,0,0,1-2.4762,2.344,7.8092,7.8092,0,0,1-3.7621.8674A8.309,8.309,0,0,1,64.2778,27.71a9.0009,9.0009,0,0,1-3.2515-3.799,13.1532,13.1532,0,0,1-1.19-5.7645,13.0287,13.0287,0,0,1,1.19-5.7431,9.0409,9.0409,0,0,1,3.2515-3.78A8.309,8.309,0,0,1,68.87,7.3,7.8093,7.8093,0,0,1,72.6324,8.1679Zm1.36,6.7673a3.8332,3.8332,0,0,0-5.5-.0184,4.4954,4.4954,0,0,0-1.0951,3.23A4.5793,4.5793,0,0,0,68.492,21.38,3.595,3.595,0,0,0,71.2512,22.57a3.6383,3.6383,0,0,0,2.7408-1.172,4.5207,4.5207,0,0,0,1.1166-3.2514A4.4649,4.4649,0,0,0,73.992,14.9352Z"/><path class="cls-1" d="M97.1826,8.4324A7.3365,7.3365,0,0,1,101,7.3742v7.8994H98.9206a5.651,5.651,0,0,0-3.59.9474,3.9948,3.9948,0,0,0-1.172,3.2884v9.259h-7.41V7.5649h7.41v3.7406A9.63,9.63,0,0,1,97.1826,8.4324Z"/></svg>